<svg xmlns="http://www.w3.org/2000/svg" width="88" height="88"><g transform="translate(5 -919.362)"><rect width="86.557" height="86.557" x="-4.279" y="920.083" ry=".222" fill="none" stroke="#008ac4" stroke-width="1.443" stroke-linejoin="round" stroke-opacity=".392"/><path d="M18.768 978.51s-8.289-19.179 25.74-31.68c19.403-7.127 19.007-18.215 19.007-18.215s3.96 49.895-29.303 54.647c0 0-9.016 2.001-13.706-1.219 0 0-4.69 9.59-4.06 14.21l-4.34.21s7.28-19.11 10.64-21.35l-3.978 3.397z" opacity=".498" fill="#008ac4"/><path d="M-4.635 1006.961c-.292-.292-.323-4.524-.323-43.498 0-29.367.068-43.302.213-43.573.21-.393.916-.4 43.65-.4 33.509 0 43.492.057 43.683.248.36.36.36 86.94 0 87.3-.19.19-10.15.247-43.573.247-39.112 0-43.357-.032-43.65-.324zM81.6 963.388v-42.66H-3.72v85.32H81.6v-42.66z" opacity=".75" fill="none"/><path d="M16.172 974.759s-8.29-19.179 25.739-31.68c19.403-7.127 19.007-18.214 19.007-18.214s3.96 49.894-29.303 54.646c0 0-9.016 2.002-13.706-1.219 0 0-4.69 9.59-4.06 14.21l-4.34.21s7.28-19.11 10.64-21.35l-3.977 3.397z" opacity=".757" fill="#b5cd42"/></g></svg>